<?xml version="1.0" encoding="utf-8"?>
<!-- Generator: Adobe Illustrator 18.1.0, SVG Export Plug-In . SVG Version: 6.00 Build 0)  -->
<svg version="1.1" id="Layer_1" xmlns="http://www.w3.org/2000/svg" xmlns:xlink="http://www.w3.org/1999/xlink" x="0px" y="0px"
	 viewBox="460.1 0 499.9 560" enable-background="new 460.1 0 499.9 560" xml:space="preserve">
<g id="building">
	<rect x="611" y="55.2" fill="#B3B3B3" width="335.1" height="503.2"/>
	<path fill="#666666" d="M851.7,558.4H705.2v-85.6c0-0.9,0.7-1.6,1.6-1.6h143.4c0.9,0,1.6,0.7,1.6,1.6L851.7,558.4L851.7,558.4z"/>
	<path fill="#808080" d="M776.8,558.4h-68.1v-82.7c0-0.6,0.5-1.1,1.1-1.1h65.9c0.6,0,1.1,0.5,1.1,1.1V558.4L776.8,558.4z"/>
	<path fill="#808080" d="M848.4,558.4h-68.1v-82.7c0-0.6,0.5-1.1,1.1-1.1h65.9c0.6,0,1.1,0.5,1.1,1.1V558.4z"/>
	<polygon fill="#3B5998" points="953,55.8 604,55.8 597,0 960,0 	"/>
</g>
<g id="windows">
	<g>
		<g>
			<path fill="#F2F2F2" d="M668.4,132.6h33.4c0.9,0,1.6,0.7,1.6,1.6v34.9h-36.5v-34.9C666.8,133.3,667.5,132.6,668.4,132.6z"/>
			<path fill="#F2F2F2" d="M750.6,134.2v34.9h-36.5v-34.9c0-0.9,0.7-1.6,1.6-1.6h33.4C749.9,132.6,750.6,133.3,750.6,134.2z"/>
			<path fill="#F2F2F2" d="M668.4,85.3h33.4c0.9,0,1.6,0.7,1.6,1.6v33.4c0,0.9-0.7,1.6-1.6,1.6h-33.4c-0.9,0-1.6-0.7-1.6-1.6V86.9
				C666.8,86,667.5,85.3,668.4,85.3z"/>
			<path fill="#F2F2F2" d="M750.6,86.9v33.4c0,0.9-0.7,1.6-1.6,1.6h-33.4c-0.9,0-1.6-0.7-1.6-1.6V86.9c0-0.9,0.7-1.6,1.6-1.6H749
				C749.9,85.3,750.6,86,750.6,86.9z"/>
		</g>
		<polygon fill="#808080" points="662.9,183 754.5,183 757.6,169.1 659.8,169.1 		"/>
	</g>
	<g>
		<g>
			<path fill="#F2F2F2" d="M808,132.6h33.4c0.9,0,1.6,0.7,1.6,1.6v34.9h-36.5v-34.9C806.4,133.3,807.1,132.6,808,132.6z"/>
			<path fill="#F2F2F2" d="M890.2,134.2v34.9h-36.5v-34.9c0-0.9,0.7-1.6,1.6-1.6h33.4C889.5,132.6,890.2,133.3,890.2,134.2z"/>
			<path fill="#F2F2F2" d="M808,85.3h33.4c0.9,0,1.6,0.7,1.6,1.6v33.4c0,0.9-0.7,1.6-1.6,1.6H808c-0.9,0-1.6-0.7-1.6-1.6V86.9
				C806.4,86,807.1,85.3,808,85.3z"/>
			<path fill="#F2F2F2" d="M890.2,86.9v33.4c0,0.9-0.7,1.6-1.6,1.6h-33.4c-0.9,0-1.6-0.7-1.6-1.6V86.9c0-0.9,0.7-1.6,1.6-1.6h33.4
				C889.5,85.3,890.2,86,890.2,86.9z"/>
		</g>
		<polygon fill="#808080" points="802.5,183 894.1,183 897.2,169.1 799.4,169.1 		"/>
	</g>
	<g>
		<g>
			<path fill="#F2F2F2" d="M668.4,258.3h33.4c0.9,0,1.6,0.7,1.6,1.6v34.9h-36.5v-34.9C666.8,259,667.5,258.3,668.4,258.3z"/>
			<path fill="#F2F2F2" d="M750.6,259.8v34.9h-36.5v-34.9c0-0.9,0.7-1.6,1.6-1.6h33.4C749.9,258.3,750.6,259,750.6,259.8z"/>
			<path fill="#F2F2F2" d="M668.4,211h33.4c0.9,0,1.6,0.7,1.6,1.6V246c0,0.9-0.7,1.6-1.6,1.6h-33.4c-0.9,0-1.6-0.7-1.6-1.6v-33.4
				C666.8,211.7,667.5,211,668.4,211z"/>
			<path fill="#F2F2F2" d="M750.6,212.5v33.4c0,0.9-0.7,1.6-1.6,1.6h-33.4c-0.9,0-1.6-0.7-1.6-1.6v-33.4c0-0.9,0.7-1.6,1.6-1.6H749
				C749.9,211,750.6,211.7,750.6,212.5z"/>
		</g>
		<polygon fill="#808080" points="662.9,308.7 754.5,308.7 757.6,294.7 659.8,294.7 		"/>
	</g>
	<g>
		<g>
			<path fill="#F2F2F2" d="M808,258.3h33.4c0.9,0,1.6,0.7,1.6,1.6v34.9h-36.5v-34.9C806.4,259,807.1,258.3,808,258.3z"/>
			<path fill="#F2F2F2" d="M890.2,259.8v34.9h-36.5v-34.9c0-0.9,0.7-1.6,1.6-1.6h33.4C889.5,258.3,890.2,259,890.2,259.8z"/>
			<path fill="#F2F2F2" d="M808,211h33.4c0.9,0,1.6,0.7,1.6,1.6V246c0,0.9-0.7,1.6-1.6,1.6H808c-0.9,0-1.6-0.7-1.6-1.6v-33.4
				C806.4,211.7,807.1,211,808,211z"/>
			<path fill="#F2F2F2" d="M890.2,212.5v33.4c0,0.9-0.7,1.6-1.6,1.6h-33.4c-0.9,0-1.6-0.7-1.6-1.6v-33.4c0-0.9,0.7-1.6,1.6-1.6h33.4
				C889.5,211,890.2,211.7,890.2,212.5z"/>
		</g>
		<polygon fill="#808080" points="802.5,308.7 894.1,308.7 897.2,294.7 799.4,294.7 		"/>
	</g>
	<g>
		<g>
			<path fill="#F2F2F2" d="M668.4,383.9h33.4c0.9,0,1.6,0.7,1.6,1.6v34.9h-36.5v-34.9C666.8,384.6,667.5,383.9,668.4,383.9z"/>
			<path fill="#F2F2F2" d="M750.6,385.5v34.9h-36.5v-34.9c0-0.9,0.7-1.6,1.6-1.6h33.4C749.9,383.9,750.6,384.6,750.6,385.5z"/>
			<path fill="#F2F2F2" d="M668.4,336.6h33.4c0.9,0,1.6,0.7,1.6,1.6v33.4c0,0.9-0.7,1.6-1.6,1.6h-33.4c-0.9,0-1.6-0.7-1.6-1.6v-33.4
				C666.8,337.3,667.5,336.6,668.4,336.6z"/>
			<path fill="#F2F2F2" d="M750.6,338.2v33.4c0,0.9-0.7,1.6-1.6,1.6h-33.4c-0.9,0-1.6-0.7-1.6-1.6v-33.4c0-0.9,0.7-1.6,1.6-1.6H749
				C749.9,336.6,750.6,337.3,750.6,338.2z"/>
		</g>
		<polygon fill="#808080" points="662.9,434.3 754.5,434.3 757.6,420.4 659.8,420.4 		"/>
	</g>
	<g>
		<g>
			<path fill="#F2F2F2" d="M808,383.9h33.4c0.9,0,1.6,0.7,1.6,1.6v34.9h-36.5v-34.9C806.4,384.6,807.1,383.9,808,383.9z"/>
			<path fill="#F2F2F2" d="M890.2,385.5v34.9h-36.5v-34.9c0-0.9,0.7-1.6,1.6-1.6h33.4C889.5,383.9,890.2,384.6,890.2,385.5z"/>
			<path fill="#F2F2F2" d="M808,336.6h33.4c0.9,0,1.6,0.7,1.6,1.6v33.4c0,0.9-0.7,1.6-1.6,1.6H808c-0.9,0-1.6-0.7-1.6-1.6v-33.4
				C806.4,337.3,807.1,336.6,808,336.6z"/>
			<path fill="#F2F2F2" d="M890.2,338.2v33.4c0,0.9-0.7,1.6-1.6,1.6h-33.4c-0.9,0-1.6-0.7-1.6-1.6v-33.4c0-0.9,0.7-1.6,1.6-1.6h33.4
				C889.5,336.6,890.2,337.3,890.2,338.2z"/>
		</g>
		<polygon fill="#808080" points="802.5,434.3 894.1,434.3 897.2,420.4 799.4,420.4 		"/>
	</g>
	<g display="none">
		<g display="inline">
			<path fill="#F2F2F2" d="M668.4,509.6h33.4c0.9,0,1.6,0.7,1.6,1.6V546h-36.5v-34.9C666.8,510.3,667.5,509.6,668.4,509.6z"/>
			<path fill="#F2F2F2" d="M750.6,511.1V546h-36.5v-34.9c0-0.9,0.7-1.6,1.6-1.6h33.4C749.9,509.6,750.6,510.3,750.6,511.1z"/>
			<path fill="#F2F2F2" d="M668.4,462.3h33.4c0.9,0,1.6,0.7,1.6,1.6v33.4c0,0.9-0.7,1.6-1.6,1.6h-33.4c-0.9,0-1.6-0.7-1.6-1.6v-33.4
				C666.8,463,667.5,462.3,668.4,462.3z"/>
			<path fill="#F2F2F2" d="M750.6,463.8v33.4c0,0.9-0.7,1.6-1.6,1.6h-33.4c-0.9,0-1.6-0.7-1.6-1.6v-33.4c0-0.9,0.7-1.6,1.6-1.6H749
				C749.9,462.3,750.6,463,750.6,463.8z"/>
		</g>
		<polygon display="inline" fill="#808080" points="662.9,560 754.5,560 757.6,546 659.8,546 		"/>
	</g>
	<g display="none">
		<g display="inline">
			<path fill="#F2F2F2" d="M808,509.6h33.4c0.9,0,1.6,0.7,1.6,1.6V546h-36.5v-34.9C806.4,510.3,807.1,509.6,808,509.6z"/>
			<path fill="#F2F2F2" d="M890.2,511.1V546h-36.5v-34.9c0-0.9,0.7-1.6,1.6-1.6h33.4C889.5,509.6,890.2,510.3,890.2,511.1z"/>
			<path fill="#F2F2F2" d="M808,462.3h33.4c0.9,0,1.6,0.7,1.6,1.6v33.4c0,0.9-0.7,1.6-1.6,1.6H808c-0.9,0-1.6-0.7-1.6-1.6v-33.4
				C806.4,463,807.1,462.3,808,462.3z"/>
			<path fill="#F2F2F2" d="M890.2,463.8v33.4c0,0.9-0.7,1.6-1.6,1.6h-33.4c-0.9,0-1.6-0.7-1.6-1.6v-33.4c0-0.9,0.7-1.6,1.6-1.6h33.4
				C889.5,462.3,890.2,463,890.2,463.8z"/>
		</g>
		<polygon display="inline" fill="#808080" points="802.5,560 894.1,560 897.2,546 799.4,546 		"/>
	</g>
</g>
<g id="netflix_x5F_logo" transform="translate(-384.28572,-428.81172)" display="none">
	<g id="g3235" transform="matrix(2.5445375,0,0,2.5445375,1157.1714,-1457.8678)" display="inline">
		<path id="path3015" fill="#FFFFFF" d="M23.4,759.5c0.8,0.1,1.7,0.2,2.5,0.3l1.8-4.5l1.7,5c0.9,0.1,1.8,0.2,2.7,0.4L29,752l3.1-7.6
			h-2.6l0,0l-1.7,4.1l-1.5-4.1h-2.6l2.6,7.5L23.4,759.5z"/>
		<path id="path3019" fill="#FFFFFF" d="M21.5,759.4v-15.1h-2.6v14.8C19.8,759.2,20.6,759.3,21.5,759.4"/>
		<path id="path3023" fill="#FFFFFF" d="M2.2,758.5c0.7,0,1.4,0,2.1,0V753h3.1v-2.4H4.3v-4h3.5v-2.4H1.7v14.2
			C1.9,758.5,2.1,758.5,2.2,758.5"/>
		<path id="path3035" fill="#FFFFFF" d="M-5.7,758.7c0.9,0,1.7-0.1,2.6-0.1v-11.9h2.4v-2.4h-7.4v2.4h2.4V758.7L-5.7,758.7z"/>
		<path id="path3039" fill="#FFFFFF" d="M-25.3,760.2v-9l3,8.6c0.9-0.1,1.9-0.2,2.8-0.3v-15.3H-22v9.3l-3.3-9.3h-0.1h-2.5v16.3l0,0
			C-27,760.5-26.1,760.4-25.3,760.2"/>
		<path id="path3051" fill="#FFFFFF" d="M-10.6,746.7v-2.4h-6.1V757v2.4l0,0c2-0.2,4.1-0.3,6.1-0.4l0,0v-0.7v-1.7
			c-1.2,0.1-2.4,0.1-3.5,0.2V753h3.1v-2.4h-3.1v-4h3.5V746.7z"/>
		<path id="path3055" fill="#FFFFFF" d="M12.9,756.4v-12.1h-2.6v12v2.4l0,0c2,0.1,4.1,0.2,6.1,0.3l0,0v-0.8v-1.6
			C15.3,756.5,14.1,756.5,12.9,756.4"/>
	</g>
</g>
<path fill="#FFFFFF" d="M785.4,27.3c-1.8,0-3.1,0.6-4.4,1.2V42c1.2,0.1,2,0.1,3.2,0.1c4.3,0,4.9-2,4.9-4.7V31
	C789.1,28.9,788.4,27.3,785.4,27.3z M757,26.6c-3,0-3.6,1.6-3.6,3.7v1.1h7.3v-1.1C760.6,28.2,759.9,26.6,757,26.6z M701.9,40.6
	c0,1.6,0.8,2.4,2.4,2.4c1.8,0,2.8-0.6,4.1-1.2v-3.2h-3.9C702.7,38.6,701.9,39,701.9,40.6z M813.1,27.3c-3,0-4,1.6-4,3.6v7.4
	c0,2,1,3.7,4,3.7s4-1.6,4-3.7v-7.4C817.1,28.9,816.1,27.3,813.1,27.3z M687.3,48.9h-8.7V27.7h-4.4v-7.3h4.4V16c0-6,2.5-9.5,9.5-9.5
	h5.8v7.3h-3.6c-2.7,0-2.9,1-2.9,2.9v3.7h6.6l-0.8,7.3h-5.8L687.3,48.9L687.3,48.9z M717.2,48.9h-7.3l-0.3-1.8
	c-3.3,1.8-6.3,2.1-8.3,2.1c-5.3,0-8.2-3.6-8.2-8.5c0-5.8,3.3-7.9,9.3-7.9h6v-1.3c0-3-0.3-3.8-4.9-3.8h-7.4l0.7-7.3h8.2
	c10,0,12.2,3.2,12.2,11.2L717.2,48.9L717.2,48.9z M742,28.2c-4.5-0.8-5.8-0.9-8-0.9c-3.9,0-5.1,0.9-5.1,4.2v6.3
	c0,3.3,1.2,4.2,5.1,4.2c2.2,0,3.5-0.2,8-1v7.1c-4,0.9-6.6,1.1-8.8,1.1c-9.4,0-13.1-4.9-13.1-12.1V32c0-7.1,3.7-12.1,13.1-12.1
	c2.2,0,4.8,0.2,8.8,1.1V28.2z M769.4,37.2h-16v0.6c0,3.3,1.2,4.2,5.1,4.2c3.5,0,5.7-0.2,10.2-1v7.1c-4.4,0.9-6.6,1.1-10.9,1.1
	c-9.4,0-13.1-4.9-13.1-12.1v-5.8c0-6.2,2.8-11.4,12.4-11.4c9.6,0,12.4,5.1,12.4,11.4v5.9H769.4z M797.8,37.3c0,6.9-2,11.9-13.9,11.9
	c-4.3,0-6.8-0.4-11.6-1.1V8.7l8.7-1.5V21c1.9-0.7,4.3-1.1,6.6-1.1c8.7,0,10.2,3.9,10.2,10.2V37.3L797.8,37.3z M825.8,37.5
	c0,5.9-2.5,11.7-12.7,11.7c-10.3,0-12.8-5.8-12.8-11.7v-5.8c0-6,2.5-11.7,12.8-11.7s12.7,5.8,12.7,11.7V37.5z M853.9,37.5
	c0,5.9-2.5,11.7-12.7,11.7c-10.3,0-12.8-5.8-12.8-11.7v-5.8c0-6,2.5-11.7,12.8-11.7s12.7,5.8,12.7,11.7V37.5z M882.6,48.9h-9.5
	l-8-13.4v13.4h-8.7V8.7l8.7-1.5V33l8-12.7h9.5l-8.8,13.9L882.6,48.9z M841.1,27.3c-3,0-4,1.6-4,3.6v7.4c0,2,1,3.7,4,3.7s4-1.6,4-3.7
	v-7.4C845.1,28.9,844.1,27.3,841.1,27.3z M887.6,43.9c1.5,0,2.6,1.2,2.6,2.7s-1.2,2.7-2.7,2.7s-2.7-1.2-2.7-2.7S886,43.9,887.6,43.9
	L887.6,43.9z M887.6,44.3c-1.2,0-2.2,1-2.2,2.3s1,2.3,2.2,2.3s2.2-1,2.2-2.3S888.8,44.3,887.6,44.3L887.6,44.3z M887.1,48.2h-0.5
	v-3.1c0.3,0,0.5-0.1,0.9-0.1c0.5,0,0.8,0.1,0.9,0.2c0.2,0.1,0.3,0.3,0.3,0.6c0,0.4-0.3,0.6-0.6,0.7l0,0c0.3,0,0.4,0.3,0.5,0.7
	c0.1,0.5,0.1,0.6,0.2,0.7h-0.5c-0.1-0.1-0.1-0.4-0.2-0.8c-0.1-0.4-0.3-0.5-0.6-0.5h-0.3L887.1,48.2L887.1,48.2z M887.1,46.5h0.3
	c0.4,0,0.7-0.1,0.7-0.5c0-0.3-0.2-0.5-0.7-0.5c-0.2,0-0.3,0-0.3,0V46.5z"/>
<rect id="pipe_x5F_business" x="460.1" y="468.2" fill="#0071BC" width="150" height="36"/>
</svg>
