<?xml version="1.0" encoding="utf-8"?>
<!-- Generator: Adobe Illustrator 18.1.0, SVG Export Plug-In . SVG Version: 6.00 Build 0)  -->
<svg version="1.1" id="Layer_1" xmlns="http://www.w3.org/2000/svg" xmlns:xlink="http://www.w3.org/1999/xlink" x="0px" y="0px"
	 viewBox="162.7 -0.5 499.4 560.5" enable-background="new 162.7 -0.5 499.4 560.5" xml:space="preserve">
<g id="building">
	<rect x="312.5" y="55.2" fill="#B3B3B3" width="335.1" height="503.2"/>
	<path fill="#666666" d="M553.2,558.4H406.7v-85.6c0-0.9,0.7-1.6,1.6-1.6h143.4c0.9,0,1.6,0.7,1.6,1.6V558.4z"/>
	<path fill="#808080" d="M478.3,558.4h-68.1v-82.7c0-0.6,0.5-1.1,1.1-1.1h65.9c0.6,0,1.1,0.5,1.1,1.1V558.4L478.3,558.4z"/>
	<path fill="#808080" d="M549.9,558.4h-68.1v-82.7c0-0.6,0.5-1.1,1.1-1.1h65.9c0.6,0,1.1,0.5,1.1,1.1V558.4z"/>
	<polygon fill="#FFFFFF" stroke="#D6D6D6" stroke-miterlimit="10" points="654.5,55.8 305.5,55.8 298.5,0 661.5,0 	"/>
</g>
<g id="windows">
	<g>
		<g>
			<path fill="#F2F2F2" d="M369.9,132.6h33.4c0.9,0,1.6,0.7,1.6,1.6v34.9h-36.5v-34.9C368.3,133.3,369,132.6,369.9,132.6z"/>
			<path fill="#F2F2F2" d="M452.1,134.2v34.9h-36.5v-34.9c0-0.9,0.7-1.6,1.6-1.6h33.4C451.4,132.6,452.1,133.3,452.1,134.2z"/>
			<path fill="#F2F2F2" d="M369.9,85.3h33.4c0.9,0,1.6,0.7,1.6,1.6v33.4c0,0.9-0.7,1.6-1.6,1.6h-33.4c-0.9,0-1.6-0.7-1.6-1.6V86.9
				C368.3,86,369,85.3,369.9,85.3z"/>
			<path fill="#F2F2F2" d="M452.1,86.9v33.4c0,0.9-0.7,1.6-1.6,1.6h-33.4c-0.9,0-1.6-0.7-1.6-1.6V86.9c0-0.9,0.7-1.6,1.6-1.6h33.4
				C451.4,85.3,452.1,86,452.1,86.9z"/>
		</g>
		<polygon fill="#808080" points="364.4,183 456,183 459.1,169.1 361.3,169.1 		"/>
	</g>
	<g>
		<g>
			<path fill="#F2F2F2" d="M509.5,132.6h33.4c0.9,0,1.6,0.7,1.6,1.6v34.9h-36.5v-34.9C507.9,133.3,508.6,132.6,509.5,132.6z"/>
			<path fill="#F2F2F2" d="M591.7,134.2v34.9h-36.5v-34.9c0-0.9,0.7-1.6,1.6-1.6h33.4C591,132.6,591.7,133.3,591.7,134.2z"/>
			<path fill="#F2F2F2" d="M509.5,85.3h33.4c0.9,0,1.6,0.7,1.6,1.6v33.4c0,0.9-0.7,1.6-1.6,1.6h-33.4c-0.9,0-1.6-0.7-1.6-1.6V86.9
				C507.9,86,508.6,85.3,509.5,85.3z"/>
			<path fill="#F2F2F2" d="M591.7,86.9v33.4c0,0.9-0.7,1.6-1.6,1.6h-33.4c-0.9,0-1.6-0.7-1.6-1.6V86.9c0-0.9,0.7-1.6,1.6-1.6h33.4
				C591,85.3,591.7,86,591.7,86.9z"/>
		</g>
		<polygon fill="#808080" points="504,183 595.6,183 598.7,169.1 500.9,169.1 		"/>
	</g>
	<g>
		<g>
			<path fill="#F2F2F2" d="M369.9,258.3h33.4c0.9,0,1.6,0.7,1.6,1.6v34.9h-36.5v-34.9C368.3,259,369,258.3,369.9,258.3z"/>
			<path fill="#F2F2F2" d="M452.1,259.8v34.9h-36.5v-34.9c0-0.9,0.7-1.6,1.6-1.6h33.4C451.4,258.3,452.1,259,452.1,259.8z"/>
			<path fill="#F2F2F2" d="M369.9,211h33.4c0.9,0,1.6,0.7,1.6,1.6v33.4c0,0.9-0.7,1.6-1.6,1.6h-33.4c-0.9,0-1.6-0.7-1.6-1.6v-33.4
				C368.3,211.7,369,211,369.9,211z"/>
			<path fill="#F2F2F2" d="M452.1,212.5v33.4c0,0.9-0.7,1.6-1.6,1.6h-33.4c-0.9,0-1.6-0.7-1.6-1.6v-33.4c0-0.9,0.7-1.6,1.6-1.6h33.4
				C451.4,211,452.1,211.7,452.1,212.5z"/>
		</g>
		<polygon fill="#808080" points="364.4,308.7 456,308.7 459.1,294.7 361.3,294.7 		"/>
	</g>
	<g>
		<g>
			<path fill="#F2F2F2" d="M509.5,258.3h33.4c0.9,0,1.6,0.7,1.6,1.6v34.9h-36.5v-34.9C507.9,259,508.6,258.3,509.5,258.3z"/>
			<path fill="#F2F2F2" d="M591.7,259.8v34.9h-36.5v-34.9c0-0.9,0.7-1.6,1.6-1.6h33.4C591,258.3,591.7,259,591.7,259.8z"/>
			<path fill="#F2F2F2" d="M509.5,211h33.4c0.9,0,1.6,0.7,1.6,1.6v33.4c0,0.9-0.7,1.6-1.6,1.6h-33.4c-0.9,0-1.6-0.7-1.6-1.6v-33.4
				C507.9,211.7,508.6,211,509.5,211z"/>
			<path fill="#F2F2F2" d="M591.7,212.5v33.4c0,0.9-0.7,1.6-1.6,1.6h-33.4c-0.9,0-1.6-0.7-1.6-1.6v-33.4c0-0.9,0.7-1.6,1.6-1.6h33.4
				C591,211,591.7,211.7,591.7,212.5z"/>
		</g>
		<polygon fill="#808080" points="504,308.7 595.6,308.7 598.7,294.7 500.9,294.7 		"/>
	</g>
	<g>
		<g>
			<path fill="#F2F2F2" d="M369.9,383.9h33.4c0.9,0,1.6,0.7,1.6,1.6v34.9h-36.5v-34.9C368.3,384.6,369,383.9,369.9,383.9z"/>
			<path fill="#F2F2F2" d="M452.1,385.5v34.9h-36.5v-34.9c0-0.9,0.7-1.6,1.6-1.6h33.4C451.4,383.9,452.1,384.6,452.1,385.5z"/>
			<path fill="#F2F2F2" d="M369.9,336.6h33.4c0.9,0,1.6,0.7,1.6,1.6v33.4c0,0.9-0.7,1.6-1.6,1.6h-33.4c-0.9,0-1.6-0.7-1.6-1.6v-33.4
				C368.3,337.3,369,336.6,369.9,336.6z"/>
			<path fill="#F2F2F2" d="M452.1,338.2v33.4c0,0.9-0.7,1.6-1.6,1.6h-33.4c-0.9,0-1.6-0.7-1.6-1.6v-33.4c0-0.9,0.7-1.6,1.6-1.6h33.4
				C451.4,336.6,452.1,337.3,452.1,338.2z"/>
		</g>
		<polygon fill="#808080" points="364.4,434.3 456,434.3 459.1,420.4 361.3,420.4 		"/>
	</g>
	<g>
		<g>
			<path fill="#F2F2F2" d="M509.5,383.9h33.4c0.9,0,1.6,0.7,1.6,1.6v34.9h-36.5v-34.9C507.9,384.6,508.6,383.9,509.5,383.9z"/>
			<path fill="#F2F2F2" d="M591.7,385.5v34.9h-36.5v-34.9c0-0.9,0.7-1.6,1.6-1.6h33.4C591,383.9,591.7,384.6,591.7,385.5z"/>
			<path fill="#F2F2F2" d="M509.5,336.6h33.4c0.9,0,1.6,0.7,1.6,1.6v33.4c0,0.9-0.7,1.6-1.6,1.6h-33.4c-0.9,0-1.6-0.7-1.6-1.6v-33.4
				C507.9,337.3,508.6,336.6,509.5,336.6z"/>
			<path fill="#F2F2F2" d="M591.7,338.2v33.4c0,0.9-0.7,1.6-1.6,1.6h-33.4c-0.9,0-1.6-0.7-1.6-1.6v-33.4c0-0.9,0.7-1.6,1.6-1.6h33.4
				C591,336.6,591.7,337.3,591.7,338.2z"/>
		</g>
		<polygon fill="#808080" points="504,434.3 595.6,434.3 598.7,420.4 500.9,420.4 		"/>
	</g>
	<g display="none">
		<g display="inline">
			<path fill="#F2F2F2" d="M369.9,509.6h33.4c0.9,0,1.6,0.7,1.6,1.6V546h-36.5v-34.9C368.3,510.3,369,509.6,369.9,509.6z"/>
			<path fill="#F2F2F2" d="M452.1,511.1V546h-36.5v-34.9c0-0.9,0.7-1.6,1.6-1.6h33.4C451.4,509.6,452.1,510.3,452.1,511.1z"/>
			<path fill="#F2F2F2" d="M369.9,462.3h33.4c0.9,0,1.6,0.7,1.6,1.6v33.4c0,0.9-0.7,1.6-1.6,1.6h-33.4c-0.9,0-1.6-0.7-1.6-1.6v-33.4
				C368.3,463,369,462.3,369.9,462.3z"/>
			<path fill="#F2F2F2" d="M452.1,463.8v33.4c0,0.9-0.7,1.6-1.6,1.6h-33.4c-0.9,0-1.6-0.7-1.6-1.6v-33.4c0-0.9,0.7-1.6,1.6-1.6h33.4
				C451.4,462.3,452.1,463,452.1,463.8z"/>
		</g>
		<polygon display="inline" fill="#808080" points="364.4,560 456,560 459.1,546 361.3,546 		"/>
	</g>
	<g display="none">
		<g display="inline">
			<path fill="#F2F2F2" d="M509.5,509.6h33.4c0.9,0,1.6,0.7,1.6,1.6V546h-36.5v-34.9C507.9,510.3,508.6,509.6,509.5,509.6z"/>
			<path fill="#F2F2F2" d="M591.7,511.1V546h-36.5v-34.9c0-0.9,0.7-1.6,1.6-1.6h33.4C591,509.6,591.7,510.3,591.7,511.1z"/>
			<path fill="#F2F2F2" d="M509.5,462.3h33.4c0.9,0,1.6,0.7,1.6,1.6v33.4c0,0.9-0.7,1.6-1.6,1.6h-33.4c-0.9,0-1.6-0.7-1.6-1.6v-33.4
				C507.9,463,508.6,462.3,509.5,462.3z"/>
			<path fill="#F2F2F2" d="M591.7,463.8v33.4c0,0.9-0.7,1.6-1.6,1.6h-33.4c-0.9,0-1.6-0.7-1.6-1.6v-33.4c0-0.9,0.7-1.6,1.6-1.6h33.4
				C591,462.3,591.7,463,591.7,463.8z"/>
		</g>
		<polygon display="inline" fill="#808080" points="504,560 595.6,560 598.7,546 500.9,546 		"/>
	</g>
</g>

<g id="logo" transform="translate(23.21242,-349.16388)">
	<g id="g3307">
		<path id="path3640" fill="#1B4EED" d="M418,358.1c0.1-0.2-3.4-2.5-8.2-3.4c-4.2-0.7-9.6-0.8-14.1,1.5c-1.1,0.6-2,1.2-2.8,1.8
			c-2.1,1.6-3.3,3.2-4.1,4.5c-0.9,1.4-1.7,3.4-2,4.3c-0.4,1.1-0.4,2.2-0.6,3.4c-0.1,0.7-0.1,1.6-0.1,2.4c0.1,1.9,0.5,4,1.4,5.9
			c0.7,1.4,1.6,2.8,2.4,4c1.4,2,3.7,3.3,5.1,4c1.1,0.6,2.4,1.1,4.6,1.5c2.5,0.4,6.3,0.4,12.3-0.5c1.7-0.3,3.5-0.8,5.5-1.2
			c0.2,0,0.3-0.1,0.4-0.1c0.1,0,0.2,0,0.2-0.1c-0.1-2.7-0.1-5.6,0-7c0-0.2,0.1-0.8,0.1-1.1c0-0.2,0.1-0.2,0.3-0.3l1.2-1.2l-9.7-0.1
			l-3.4,1.9l6.8-0.3v7.5c0,0-2.7,1.1-6.4,1.1c-2.7-0.1-5.9-0.7-9.1-3c-4.9-3.7-6.6-8.8-6.7-12.5c0-1.9-0.1-3.3,0.1-3.9
			c0.1-0.5,0.3-1.8,0.9-3.2c0.8-1.9,2-3.8,4.4-5.5c1.5-1,3.4-1.9,5.7-2.1c2.6-0.2,4.5,0.1,6.1,0.7c3.9,1.5,4.6,2.8,5.2,3.2
			c0,0,0.2,0.1,0.1,0.2c-0.1,0.1-0.1,0.2-0.1,0.2c-0.2,0.5-0.9,1.6-0.9,1.6l1.5-0.2L418,358.1L418,358.1z"/>
		<path id="path7733" fill="#EE2B35" d="M432.7,364.7c-0.6,0-0.9,0.1-0.9,0.1c0.5-0.1-11.1,1.3-10,12.7c0.3,3.2,1.8,5.2,3.5,6.6
			c3.5,2.9,8.4,2.9,8.4,2.9c1.7,0.1,6.2-1.4,8.8-5.1c1.3-1.9,2.4-4.2,1.9-7.6c-0.5-3.3-2-5.4-3.6-6.8
			C438,364.9,434.4,364.6,432.7,364.7L432.7,364.7z M432.1,366.2c2.2,0,6,1.1,7.2,7.8c1.7,9.5-2.6,10.4-3.6,10.9
			c-1.3,0.7-7.3,1.3-9.4-8.4c-2.1-9.6,4.4-10,4.1-10C430.4,366.4,431.1,366.2,432.1,366.2L432.1,366.2z"/>
		<path id="path8122" fill="#1643EC" d="M483.1,365.2c-0.4,0-1.4,0-2.5,0.2c-2.7,0.5-6.5,2.3-7.6,6.1c-1.7,5.8,2.6,8.1,2.6,8.1
			s1.5,0.9,2.1,1.1c1.9,0.5,3.8,0.3,3.8,0.3s-0.8,2.6,0.8,4.4c0.4,0.4,0.1,0.5,0.1,0.5s-6.9-0.2-10.1,3.3c-3.3,3.5-1.5,6.6-1.5,6.6
			s1.7,4.2,9.1,4.4c7.4,0.2,12-4.2,12.4-7.5c0.2-1.7,0-3.2-0.9-4.6c-0.8-1.3-2.2-2.5-3.6-3.6c-0.8-0.7-1.4-1-1.8-1.4
			c-0.4-0.4-0.4-0.9-0.4-1.2c0-0.5,0.3-1.1,1.2-2.2c1.6-1.9,2-1.6,3-3c0.3-0.4,0.5-1,0.8-2c0.2-0.6,0.2-1.1,0.2-1.7
			c0-1.1-0.3-2.3-0.7-3.2c-0.8-1.7-2.3-2.8-2.4-2.9h2.6l2.9-1.7l-9.8,0C483.3,365.2,483.2,365.2,483.1,365.2z M481,366.8
			c1.5,0,3.7,0.8,5.1,4.8c2.3,6.9-2.5,8-2.5,8s-5.6,0.8-6.6-5.3c-1-6.3,1.5-6.6,2.5-7.3C479.4,367.1,480.1,366.8,481,366.8z
			 M484,387.3c0,0,4.4,2.7,4.8,4.7c0.5,2.2,0.5,3.8-2.9,5.6c-1,0.5-2.8,0.6-3.8,0.6c-2.7,0-4.7-1-5.8-1.6c-0.5-0.3-3.4-3.5-1.3-6.5
			c0.5-0.7,1.1-1.1,1.7-1.4c1.2-0.8,2.4-1.2,4.6-1.4C482.1,387.3,483.1,387.3,484,387.3z"/>
		<path id="path8279" fill="#00B817" d="M492.6,355l3.4-1.7l6.5,0c0,0-1.7,0.8-1.9,2.2s0,27.1,0,27.1c0,0.7-0.3,1.5,1.6,1.7
			c2.3,0.2,2.7,0.3,2.7,0.3l-1.6,1.2l-8.5-0.1l0.9-1c0,0,0.5-0.4,0.5-2c0-1.6-0.1-27.7-0.1-27.7H492.6L492.6,355z"/>
		<path id="path8363" fill="#EE2B34" d="M516.9,364.6c-0.2,0-0.9-0.1-1.1-0.1c-6.2,0.5-9.1,4-10.1,7.2c-1,3.2-0.2,7.9,1.2,10
			c1.4,2.1,4.2,4.7,8.7,4.8c4.5,0.1,6.9-2.1,8.4-3.5c0.1-0.1,0.2-0.3,0.2-0.3s-2.8,1.6-5.7,1.6c-3.1,0-8-3.1-9.2-9.4
			c1.2-0.1,2.1-0.2,3.4-0.1l11-4.5c0,0-0.3-1.4-1.4-2.8c-0.7-0.9-1.8-1.7-3.1-2.3C518.3,364.8,518,364.9,516.9,364.6z M514.1,366.1
			c0.1,0,0.3,0,0.4,0c0.9,0,1.6,0.2,2.2,0.6c0.4,0.3,0.8,0.7,1.3,1.1c1,0.8,1,2,1,2c0,0.2,0.2,0.6-0.4,0.9c-1.4,0.9-4.4,2-7,3.1
			c-0.8,0.3-1.7,0.6-2.3,1c0,0-0.5-2.9,0.3-5.4c0.5-1.3,1.5-2.4,2.8-2.9C513.2,366.2,513.7,366.1,514.1,366.1L514.1,366.1z"/>
		<path id="path7733-4" fill="#FCB110" d="M458.2,364.6c-0.6,0-0.9,0.1-0.9,0.1c0.5-0.1-11.1,1.3-10,12.7c0.3,3.2,1.8,5.2,3.5,6.6
			c3.5,2.9,8.4,2.9,8.4,2.9c1.7,0.1,6.2-1.4,8.8-5.1c1.3-1.9,2.4-4.2,1.9-7.6c-0.5-3.3-2-5.4-3.6-6.8
			C463.4,364.8,459.8,364.6,458.2,364.6z M457.6,366.2c2.2,0,6,1.1,7.2,7.8c1.7,9.5-2.6,10.4-3.6,10.9c-1.3,0.7-7.3,1.3-9.4-8.4
			c-2.1-9.6,4.4-10,4.1-10C455.9,366.4,456.6,366.2,457.6,366.2L457.6,366.2z"/>
		<path id="polyline222" d="M530.1,367.5v-2.9h0l-0.9,2.9h-0.3l-0.9-2.9h0v2.9h-0.3v-3.2h0.6l0.8,2.6h0l0.8-2.6h0.6v3.2
			 M526.2,364.6v2.9h-0.4v-2.9h-1v-0.3h2.3v0.3"/>
	</g>
</g>
<rect id="pipe_x5F_business" x="162.7" y="468.3" fill="#0071BC" width="150" height="36"/>
</svg>
