<?xml version="1.0" encoding="utf-8"?>
<!-- Generator: Adobe Illustrator 18.1.0, SVG Export Plug-In . SVG Version: 6.00 Build 0)  -->
<svg version="1.1" xmlns="http://www.w3.org/2000/svg" xmlns:xlink="http://www.w3.org/1999/xlink" x="0px" y="0px"
	 viewBox="0 0 432 558" enable-background="new 0 0 432 558" xml:space="preserve">
<g id="Layer_1">
	<rect x="36" y="198" fill="#B3B3B3" width="360" height="360"/>
	<path fill="#666666" d="M263.5,409.3h-95c-1.1,0-2,0.9-2,2V558h99V411.3C265.5,410.2,264.6,409.3,263.5,409.3z"/>
	<path fill="#808080" d="M259,414h-86c-1.1,0-2,0.9-2,2v142h90V416C261,414.9,260.1,414,259,414z"/>
	<g>
		<path fill="#F2F2F2" d="M242,307h43c1.1,0,2,0.9,2,2v43c0,1.1-0.9,2-2,2h-43c-1.1,0-2-0.9-2-2v-43C240,307.9,240.9,307,242,307z"
			/>
		<path fill="#F2F2F2" d="M348,309v43c0,1.1-0.9,2-2,2h-43c-1.1,0-2-0.9-2-2v-43c0-1.1,0.9-2,2-2h43C347.1,307,348,307.9,348,309z"
			/>
		<path fill="#F2F2F2" d="M242,246h43c1.1,0,2,0.9,2,2v43c0,1.1-0.9,2-2,2h-43c-1.1,0-2-0.9-2-2v-43C240,246.9,240.9,246,242,246z"
			/>
		<path fill="#F2F2F2" d="M348,248v43c0,1.1-0.9,2-2,2h-43c-1.1,0-2-0.9-2-2v-43c0-1.1,0.9-2,2-2h43C347.1,246,348,246.9,348,248z"
			/>
	</g>
	<g>
		<path fill="#F2F2F2" d="M86,307h43c1.1,0,2,0.9,2,2v43c0,1.1-0.9,2-2,2H86c-1.1,0-2-0.9-2-2v-43C84,307.9,84.9,307,86,307z"/>
		<path fill="#F2F2F2" d="M192,309v43c0,1.1-0.9,2-2,2h-43c-1.1,0-2-0.9-2-2v-43c0-1.1,0.9-2,2-2h43C191.1,307,192,307.9,192,309z"
			/>
		<path fill="#F2F2F2" d="M86,246h43c1.1,0,2,0.9,2,2v43c0,1.1-0.9,2-2,2H86c-1.1,0-2-0.9-2-2v-43C84,246.9,84.9,246,86,246z"/>
		<path fill="#F2F2F2" d="M192,248v43c0,1.1-0.9,2-2,2h-43c-1.1,0-2-0.9-2-2v-43c0-1.1,0.9-2,2-2h43C191.1,246,192,246.9,192,248z"
			/>
	</g>
	<circle fill="#666666" cx="247.5" cy="486.5" r="4.5"/>
</g>
<g id="Layer_2">
	<g>
		<polygon fill="#999999" points="216,198 216,0 432,198 		"/>
		<polygon fill="#BFBFBF" points="0,198 216,0 216,198 		"/>
	</g>
</g>
<g id="Layer_3">
	<polygon fill="#4D4D4D" points="396,216 36,198 396,198 	"/>
</g>
</svg>
