<?xml version="1.0" encoding="utf-8"?>
<!-- Generator: Adobe Illustrator 18.1.0, SVG Export Plug-In . SVG Version: 6.00 Build 0)  -->
<svg version="1.1" id="Layer_1" xmlns="http://www.w3.org/2000/svg" xmlns:xlink="http://www.w3.org/1999/xlink" x="0px" y="0px"
	 viewBox="461 0 499 560" enable-background="new 461 0 499 560" xml:space="preserve">
<g id="building">
	<rect x="611" y="55.2" fill="#B3B3B3" width="335.1" height="503.2"/>
	<path fill="#666666" d="M851.7,558.4H705.2v-85.6c0-0.9,0.7-1.6,1.6-1.6h143.4c0.9,0,1.6,0.7,1.6,1.6L851.7,558.4L851.7,558.4z"/>
	<path fill="#808080" d="M776.8,558.4h-68.1v-82.7c0-0.6,0.5-1.1,1.1-1.1h65.9c0.6,0,1.1,0.5,1.1,1.1V558.4L776.8,558.4z"/>
	<path fill="#808080" d="M848.4,558.4h-68.1v-82.7c0-0.6,0.5-1.1,1.1-1.1h65.9c0.6,0,1.1,0.5,1.1,1.1V558.4z"/>
	<polygon fill="#B81D24" points="953,55.8 604,55.8 597,0 960,0 	"/>
</g>
<g id="windows">
	<g>
		<g>
			<path fill="#F2F2F2" d="M668.4,132.6h33.4c0.9,0,1.6,0.7,1.6,1.6v34.9h-36.5v-34.9C666.8,133.3,667.5,132.6,668.4,132.6z"/>
			<path fill="#F2F2F2" d="M750.6,134.2v34.9h-36.5v-34.9c0-0.9,0.7-1.6,1.6-1.6h33.4C749.9,132.6,750.6,133.3,750.6,134.2z"/>
			<path fill="#F2F2F2" d="M668.4,85.3h33.4c0.9,0,1.6,0.7,1.6,1.6v33.4c0,0.9-0.7,1.6-1.6,1.6h-33.4c-0.9,0-1.6-0.7-1.6-1.6V86.9
				C666.8,86,667.5,85.3,668.4,85.3z"/>
			<path fill="#F2F2F2" d="M750.6,86.9v33.4c0,0.9-0.7,1.6-1.6,1.6h-33.4c-0.9,0-1.6-0.7-1.6-1.6V86.9c0-0.9,0.7-1.6,1.6-1.6H749
				C749.9,85.3,750.6,86,750.6,86.9z"/>
		</g>
		<polygon fill="#808080" points="662.9,183 754.5,183 757.6,169.1 659.8,169.1 		"/>
	</g>
	<g>
		<g>
			<path fill="#F2F2F2" d="M808,132.6h33.4c0.9,0,1.6,0.7,1.6,1.6v34.9h-36.5v-34.9C806.4,133.3,807.1,132.6,808,132.6z"/>
			<path fill="#F2F2F2" d="M890.2,134.2v34.9h-36.5v-34.9c0-0.9,0.7-1.6,1.6-1.6h33.4C889.5,132.6,890.2,133.3,890.2,134.2z"/>
			<path fill="#F2F2F2" d="M808,85.3h33.4c0.9,0,1.6,0.7,1.6,1.6v33.4c0,0.9-0.7,1.6-1.6,1.6H808c-0.9,0-1.6-0.7-1.6-1.6V86.9
				C806.4,86,807.1,85.3,808,85.3z"/>
			<path fill="#F2F2F2" d="M890.2,86.9v33.4c0,0.9-0.7,1.6-1.6,1.6h-33.4c-0.9,0-1.6-0.7-1.6-1.6V86.9c0-0.9,0.7-1.6,1.6-1.6h33.4
				C889.5,85.3,890.2,86,890.2,86.9z"/>
		</g>
		<polygon fill="#808080" points="802.5,183 894.1,183 897.2,169.1 799.4,169.1 		"/>
	</g>
	<g>
		<g>
			<path fill="#F2F2F2" d="M668.4,258.3h33.4c0.9,0,1.6,0.7,1.6,1.6v34.9h-36.5v-34.9C666.8,259,667.5,258.3,668.4,258.3z"/>
			<path fill="#F2F2F2" d="M750.6,259.8v34.9h-36.5v-34.9c0-0.9,0.7-1.6,1.6-1.6h33.4C749.9,258.3,750.6,259,750.6,259.8z"/>
			<path fill="#F2F2F2" d="M668.4,211h33.4c0.9,0,1.6,0.7,1.6,1.6V246c0,0.9-0.7,1.6-1.6,1.6h-33.4c-0.9,0-1.6-0.7-1.6-1.6v-33.4
				C666.8,211.7,667.5,211,668.4,211z"/>
			<path fill="#F2F2F2" d="M750.6,212.5v33.4c0,0.9-0.7,1.6-1.6,1.6h-33.4c-0.9,0-1.6-0.7-1.6-1.6v-33.4c0-0.9,0.7-1.6,1.6-1.6H749
				C749.9,211,750.6,211.7,750.6,212.5z"/>
		</g>
		<polygon fill="#808080" points="662.9,308.7 754.5,308.7 757.6,294.7 659.8,294.7 		"/>
	</g>
	<g>
		<g>
			<path fill="#F2F2F2" d="M808,258.3h33.4c0.9,0,1.6,0.7,1.6,1.6v34.9h-36.5v-34.9C806.4,259,807.1,258.3,808,258.3z"/>
			<path fill="#F2F2F2" d="M890.2,259.8v34.9h-36.5v-34.9c0-0.9,0.7-1.6,1.6-1.6h33.4C889.5,258.3,890.2,259,890.2,259.8z"/>
			<path fill="#F2F2F2" d="M808,211h33.4c0.9,0,1.6,0.7,1.6,1.6V246c0,0.9-0.7,1.6-1.6,1.6H808c-0.9,0-1.6-0.7-1.6-1.6v-33.4
				C806.4,211.7,807.1,211,808,211z"/>
			<path fill="#F2F2F2" d="M890.2,212.5v33.4c0,0.9-0.7,1.6-1.6,1.6h-33.4c-0.9,0-1.6-0.7-1.6-1.6v-33.4c0-0.9,0.7-1.6,1.6-1.6h33.4
				C889.5,211,890.2,211.7,890.2,212.5z"/>
		</g>
		<polygon fill="#808080" points="802.5,308.7 894.1,308.7 897.2,294.7 799.4,294.7 		"/>
	</g>
	<g>
		<g>
			<path fill="#F2F2F2" d="M668.4,383.9h33.4c0.9,0,1.6,0.7,1.6,1.6v34.9h-36.5v-34.9C666.8,384.6,667.5,383.9,668.4,383.9z"/>
			<path fill="#F2F2F2" d="M750.6,385.5v34.9h-36.5v-34.9c0-0.9,0.7-1.6,1.6-1.6h33.4C749.9,383.9,750.6,384.6,750.6,385.5z"/>
			<path fill="#F2F2F2" d="M668.4,336.6h33.4c0.9,0,1.6,0.7,1.6,1.6v33.4c0,0.9-0.7,1.6-1.6,1.6h-33.4c-0.9,0-1.6-0.7-1.6-1.6v-33.4
				C666.8,337.3,667.5,336.6,668.4,336.6z"/>
			<path fill="#F2F2F2" d="M750.6,338.2v33.4c0,0.9-0.7,1.6-1.6,1.6h-33.4c-0.9,0-1.6-0.7-1.6-1.6v-33.4c0-0.9,0.7-1.6,1.6-1.6H749
				C749.9,336.6,750.6,337.3,750.6,338.2z"/>
		</g>
		<polygon fill="#808080" points="662.9,434.3 754.5,434.3 757.6,420.4 659.8,420.4 		"/>
	</g>
	<g>
		<g>
			<path fill="#F2F2F2" d="M808,383.9h33.4c0.9,0,1.6,0.7,1.6,1.6v34.9h-36.5v-34.9C806.4,384.6,807.1,383.9,808,383.9z"/>
			<path fill="#F2F2F2" d="M890.2,385.5v34.9h-36.5v-34.9c0-0.9,0.7-1.6,1.6-1.6h33.4C889.5,383.9,890.2,384.6,890.2,385.5z"/>
			<path fill="#F2F2F2" d="M808,336.6h33.4c0.9,0,1.6,0.7,1.6,1.6v33.4c0,0.9-0.7,1.6-1.6,1.6H808c-0.9,0-1.6-0.7-1.6-1.6v-33.4
				C806.4,337.3,807.1,336.6,808,336.6z"/>
			<path fill="#F2F2F2" d="M890.2,338.2v33.4c0,0.9-0.7,1.6-1.6,1.6h-33.4c-0.9,0-1.6-0.7-1.6-1.6v-33.4c0-0.9,0.7-1.6,1.6-1.6h33.4
				C889.5,336.6,890.2,337.3,890.2,338.2z"/>
		</g>
		<polygon fill="#808080" points="802.5,434.3 894.1,434.3 897.2,420.4 799.4,420.4 		"/>
	</g>
	<g display="none">
		<g display="inline">
			<path fill="#F2F2F2" d="M668.4,509.6h33.4c0.9,0,1.6,0.7,1.6,1.6V546h-36.5v-34.9C666.8,510.3,667.5,509.6,668.4,509.6z"/>
			<path fill="#F2F2F2" d="M750.6,511.1V546h-36.5v-34.9c0-0.9,0.7-1.6,1.6-1.6h33.4C749.9,509.6,750.6,510.3,750.6,511.1z"/>
			<path fill="#F2F2F2" d="M668.4,462.3h33.4c0.9,0,1.6,0.7,1.6,1.6v33.4c0,0.9-0.7,1.6-1.6,1.6h-33.4c-0.9,0-1.6-0.7-1.6-1.6v-33.4
				C666.8,463,667.5,462.3,668.4,462.3z"/>
			<path fill="#F2F2F2" d="M750.6,463.8v33.4c0,0.9-0.7,1.6-1.6,1.6h-33.4c-0.9,0-1.6-0.7-1.6-1.6v-33.4c0-0.9,0.7-1.6,1.6-1.6H749
				C749.9,462.3,750.6,463,750.6,463.8z"/>
		</g>
		<polygon display="inline" fill="#808080" points="662.9,560 754.5,560 757.6,546 659.8,546 		"/>
	</g>
	<g display="none">
		<g display="inline">
			<path fill="#F2F2F2" d="M808,509.6h33.4c0.9,0,1.6,0.7,1.6,1.6V546h-36.5v-34.9C806.4,510.3,807.1,509.6,808,509.6z"/>
			<path fill="#F2F2F2" d="M890.2,511.1V546h-36.5v-34.9c0-0.9,0.7-1.6,1.6-1.6h33.4C889.5,509.6,890.2,510.3,890.2,511.1z"/>
			<path fill="#F2F2F2" d="M808,462.3h33.4c0.9,0,1.6,0.7,1.6,1.6v33.4c0,0.9-0.7,1.6-1.6,1.6H808c-0.9,0-1.6-0.7-1.6-1.6v-33.4
				C806.4,463,807.1,462.3,808,462.3z"/>
			<path fill="#F2F2F2" d="M890.2,463.8v33.4c0,0.9-0.7,1.6-1.6,1.6h-33.4c-0.9,0-1.6-0.7-1.6-1.6v-33.4c0-0.9,0.7-1.6,1.6-1.6h33.4
				C889.5,462.3,890.2,463,890.2,463.8z"/>
		</g>
		<polygon display="inline" fill="#808080" points="802.5,560 894.1,560 897.2,546 799.4,546 		"/>
	</g>
</g>
<g id="netflix_x5F_logo" transform="translate(-384.28572,-428.81172)">
	<g id="g3235" transform="matrix(2.5445375,0,0,2.5445375,1157.1714,-1457.8678)">
		<path id="path3015" fill="#FFFFFF" d="M23.4,759.5c0.8,0.1,1.7,0.2,2.5,0.3l1.8-4.5l1.7,5c0.9,0.1,1.8,0.2,2.7,0.4L29,752l3.1-7.6
			h-2.6l0,0l-1.7,4.1l-1.5-4.1h-2.6l2.6,7.5L23.4,759.5z"/>
		<path id="path3019" fill="#FFFFFF" d="M21.5,759.4v-15.1h-2.6v14.8C19.8,759.2,20.6,759.3,21.5,759.4"/>
		<path id="path3023" fill="#FFFFFF" d="M2.2,758.5c0.7,0,1.4,0,2.1,0V753h3.1v-2.4H4.3v-4h3.5v-2.4H1.7v14.2
			C1.9,758.5,2.1,758.5,2.2,758.5"/>
		<path id="path3035" fill="#FFFFFF" d="M-5.7,758.7c0.9,0,1.7-0.1,2.6-0.1v-11.9h2.4v-2.4h-7.4v2.4h2.4V758.7L-5.7,758.7z"/>
		<path id="path3039" fill="#FFFFFF" d="M-25.3,760.2v-9l3,8.6c0.9-0.1,1.9-0.2,2.8-0.3v-15.3H-22v9.3l-3.3-9.3h-0.1h-2.5v16.3l0,0
			C-27,760.5-26.1,760.4-25.3,760.2"/>
		<path id="path3051" fill="#FFFFFF" d="M-10.6,746.7v-2.4h-6.1V757v2.4l0,0c2-0.2,4.1-0.3,6.1-0.4l0,0v-0.7v-1.7
			c-1.2,0.1-2.4,0.1-3.5,0.2V753h3.1v-2.4h-3.1v-4h3.5V746.7z"/>
		<path id="path3055" fill="#FFFFFF" d="M12.9,756.4v-12.1h-2.6v12v2.4l0,0c2,0.1,4.1,0.2,6.1,0.3l0,0v-0.8v-1.6
			C15.3,756.5,14.1,756.5,12.9,756.4"/>
	</g>
</g>
<g>
	<rect id="pipe_x5F_business" x="461" y="468.2" fill="#0071BC" width="150" height="36"/>
	<rect id="pipe_x5F_house" x="311" y="477.2" display="none" fill="#0071BC" width="150" height="18"/>
</g>
<rect x="-324.9" y="198.3" display="none" fill="#4D4D4D" width="882" height="360"/>
<rect x="209.1" y="11.3" display="none" fill="#B3B3B3" width="1008" height="648"/>
</svg>
